<mxfile host="Electron" modified="2024-07-25T19:59:18.095Z" agent="Mozilla/5.0 (Windows NT 10.0; Win64; x64) AppleWebKit/537.36 (KHTML, like Gecko) draw.io/24.6.4 Chrome/124.0.6367.207 Electron/30.0.6 Safari/537.36" etag="AKDsaYU540lmS6vR0GzB" version="24.6.4" type="device">
  <diagram id="R2lEEEUBdFMjLlhIrx00" name="Page-1">
    <mxGraphModel dx="1035" dy="626" grid="1" gridSize="10" guides="1" tooltips="1" connect="1" arrows="1" fold="1" page="1" pageScale="1" pageWidth="850" pageHeight="1100" math="0" shadow="0" extFonts="Permanent Marker^https://fonts.googleapis.com/css?family=Permanent+Marker">
      <root>
        <mxCell id="0" />
        <mxCell id="1" parent="0" />
        <mxCell id="ekM_NdL7K5Tozn75nBEl-268" value="&lt;span style=&quot;font-size: 18px;&quot;&gt;Otorga&lt;/span&gt;" style="shape=rhombus;perimeter=rhombusPerimeter;whiteSpace=wrap;html=1;align=center;" parent="1" vertex="1">
          <mxGeometry x="340" y="240" width="120" height="60" as="geometry" />
        </mxCell>
        <mxCell id="ekM_NdL7K5Tozn75nBEl-269" value="" style="line;strokeWidth=1;rotatable=0;dashed=0;labelPosition=right;align=left;verticalAlign=middle;spacingTop=0;spacingLeft=6;points=[];portConstraint=eastwest;" parent="1" vertex="1">
          <mxGeometry x="460" y="265" width="70" height="10" as="geometry" />
        </mxCell>
        <mxCell id="ekM_NdL7K5Tozn75nBEl-270" value="" style="line;strokeWidth=1;rotatable=0;dashed=0;labelPosition=right;align=left;verticalAlign=middle;spacingTop=0;spacingLeft=6;points=[];portConstraint=eastwest;" parent="1" vertex="1">
          <mxGeometry x="280" y="265" width="60" height="10" as="geometry" />
        </mxCell>
        <mxCell id="ekM_NdL7K5Tozn75nBEl-271" value="&lt;font size=&quot;3&quot;&gt;Trofeos&lt;/font&gt;" style="whiteSpace=wrap;html=1;align=center;" parent="1" vertex="1">
          <mxGeometry x="180" y="250" width="100" height="40" as="geometry" />
        </mxCell>
        <mxCell id="ekM_NdL7K5Tozn75nBEl-272" value="&lt;font size=&quot;3&quot;&gt;Equipos&lt;/font&gt;" style="whiteSpace=wrap;html=1;align=center;" parent="1" vertex="1">
          <mxGeometry x="530" y="250" width="100" height="40" as="geometry" />
        </mxCell>
        <mxCell id="ekM_NdL7K5Tozn75nBEl-274" value="&lt;font style=&quot;font-size: 16px;&quot;&gt;Ganador&lt;/font&gt;" style="whiteSpace=wrap;html=1;align=center;" parent="1" vertex="1">
          <mxGeometry x="350" y="110" width="100" height="40" as="geometry" />
        </mxCell>
        <mxCell id="ekM_NdL7K5Tozn75nBEl-275" value="&lt;span style=&quot;font-size: 16px;&quot;&gt;Torneo&lt;/span&gt;" style="whiteSpace=wrap;html=1;align=center;" parent="1" vertex="1">
          <mxGeometry x="375" y="450" width="100" height="40" as="geometry" />
        </mxCell>
        <mxCell id="ekM_NdL7K5Tozn75nBEl-276" value="&lt;font style=&quot;font-size: 16px;&quot;&gt;Otorga&lt;/font&gt;" style="shape=rhombus;perimeter=rhombusPerimeter;whiteSpace=wrap;html=1;align=center;" parent="1" vertex="1">
          <mxGeometry x="190" y="150" width="90" height="50" as="geometry" />
        </mxCell>
        <mxCell id="ekM_NdL7K5Tozn75nBEl-277" value="Otorga" style="shape=rhombus;perimeter=rhombusPerimeter;whiteSpace=wrap;html=1;align=center;" parent="1" vertex="1">
          <mxGeometry x="280" y="320" width="90" height="60" as="geometry" />
        </mxCell>
        <mxCell id="ekM_NdL7K5Tozn75nBEl-278" value="Otorga" style="shape=rhombus;perimeter=rhombusPerimeter;whiteSpace=wrap;html=1;align=center;" parent="1" vertex="1">
          <mxGeometry x="425" y="312.5" width="90" height="65" as="geometry" />
        </mxCell>
        <mxCell id="ekM_NdL7K5Tozn75nBEl-282" value="" style="endArrow=none;html=1;rounded=0;entryX=1;entryY=0;entryDx=0;entryDy=0;" parent="1" target="ekM_NdL7K5Tozn75nBEl-276" edge="1">
          <mxGeometry relative="1" as="geometry">
            <mxPoint x="350" y="125" as="sourcePoint" />
            <mxPoint x="270" y="225" as="targetPoint" />
          </mxGeometry>
        </mxCell>
        <mxCell id="ekM_NdL7K5Tozn75nBEl-284" value="" style="endArrow=none;html=1;rounded=0;exitX=0.25;exitY=0;exitDx=0;exitDy=0;" parent="1" source="ekM_NdL7K5Tozn75nBEl-271" edge="1">
          <mxGeometry relative="1" as="geometry">
            <mxPoint x="60" y="190" as="sourcePoint" />
            <mxPoint x="213" y="188" as="targetPoint" />
          </mxGeometry>
        </mxCell>
        <mxCell id="ekM_NdL7K5Tozn75nBEl-285" value="" style="endArrow=none;html=1;rounded=0;" parent="1" source="ekM_NdL7K5Tozn75nBEl-277" edge="1">
          <mxGeometry relative="1" as="geometry">
            <mxPoint x="150" y="380" as="sourcePoint" />
            <mxPoint x="230" y="290" as="targetPoint" />
          </mxGeometry>
        </mxCell>
        <mxCell id="ekM_NdL7K5Tozn75nBEl-287" value="" style="endArrow=none;html=1;rounded=0;entryX=0.25;entryY=0;entryDx=0;entryDy=0;exitX=1;exitY=1;exitDx=0;exitDy=0;" parent="1" source="ekM_NdL7K5Tozn75nBEl-277" target="ekM_NdL7K5Tozn75nBEl-275" edge="1">
          <mxGeometry relative="1" as="geometry">
            <mxPoint x="230" y="440" as="sourcePoint" />
            <mxPoint x="315" y="370" as="targetPoint" />
          </mxGeometry>
        </mxCell>
        <mxCell id="ekM_NdL7K5Tozn75nBEl-289" value="" style="endArrow=none;html=1;rounded=0;exitX=1;exitY=0;exitDx=0;exitDy=0;" parent="1" source="ekM_NdL7K5Tozn75nBEl-278" edge="1">
          <mxGeometry relative="1" as="geometry">
            <mxPoint x="425" y="290" as="sourcePoint" />
            <mxPoint x="585" y="290" as="targetPoint" />
          </mxGeometry>
        </mxCell>
        <mxCell id="ekM_NdL7K5Tozn75nBEl-290" value="" style="endArrow=none;html=1;rounded=0;" parent="1" edge="1">
          <mxGeometry relative="1" as="geometry">
            <mxPoint x="400" y="110" as="sourcePoint" />
            <mxPoint x="400" y="70" as="targetPoint" />
          </mxGeometry>
        </mxCell>
        <mxCell id="ekM_NdL7K5Tozn75nBEl-291" value="&lt;font style=&quot;font-size: 16px;&quot;&gt;&lt;u&gt;IDGanadores (PK)&lt;/u&gt;&lt;/font&gt;" style="ellipse;whiteSpace=wrap;html=1;align=center;" parent="1" vertex="1">
          <mxGeometry x="170" width="150" height="60" as="geometry" />
        </mxCell>
        <mxCell id="ekM_NdL7K5Tozn75nBEl-294" value="&lt;font style=&quot;font-size: 16px;&quot;&gt;Nombre&lt;/font&gt;" style="ellipse;whiteSpace=wrap;html=1;align=center;" parent="1" vertex="1">
          <mxGeometry x="340" width="140" height="70" as="geometry" />
        </mxCell>
        <mxCell id="ekM_NdL7K5Tozn75nBEl-295" value="" style="endArrow=none;html=1;rounded=0;entryX=0.25;entryY=0;entryDx=0;entryDy=0;exitX=0.5;exitY=1;exitDx=0;exitDy=0;" parent="1" source="ekM_NdL7K5Tozn75nBEl-291" target="ekM_NdL7K5Tozn75nBEl-274" edge="1">
          <mxGeometry relative="1" as="geometry">
            <mxPoint x="230" y="60" as="sourcePoint" />
            <mxPoint x="390" y="60" as="targetPoint" />
          </mxGeometry>
        </mxCell>
        <mxCell id="ekM_NdL7K5Tozn75nBEl-296" value="&lt;font style=&quot;font-size: 16px;&quot;&gt;Posición juegos&lt;/font&gt;" style="ellipse;whiteSpace=wrap;html=1;align=center;" parent="1" vertex="1">
          <mxGeometry x="510" width="160" height="70" as="geometry" />
        </mxCell>
        <mxCell id="ekM_NdL7K5Tozn75nBEl-297" value="" style="endArrow=none;html=1;rounded=0;" parent="1" edge="1">
          <mxGeometry relative="1" as="geometry">
            <mxPoint x="425" y="110" as="sourcePoint" />
            <mxPoint x="585" y="70" as="targetPoint" />
          </mxGeometry>
        </mxCell>
        <mxCell id="ekM_NdL7K5Tozn75nBEl-298" value="&lt;font style=&quot;font-size: 16px;&quot;&gt;&lt;u&gt;IDTrofeo(PK)&lt;/u&gt;&lt;/font&gt;" style="ellipse;whiteSpace=wrap;html=1;align=center;" parent="1" vertex="1">
          <mxGeometry x="40" y="200" width="120" height="50" as="geometry" />
        </mxCell>
        <mxCell id="ekM_NdL7K5Tozn75nBEl-299" value="&lt;font style=&quot;font-size: 16px;&quot;&gt;Descripcion&lt;/font&gt;" style="ellipse;whiteSpace=wrap;html=1;align=center;" parent="1" vertex="1">
          <mxGeometry x="40" y="320" width="120" height="50" as="geometry" />
        </mxCell>
        <mxCell id="ekM_NdL7K5Tozn75nBEl-300" value="&lt;font style=&quot;font-size: 16px;&quot;&gt;Nombre&lt;/font&gt;" style="ellipse;whiteSpace=wrap;html=1;align=center;" parent="1" vertex="1">
          <mxGeometry x="40" y="260" width="120" height="50" as="geometry" />
        </mxCell>
        <mxCell id="ekM_NdL7K5Tozn75nBEl-301" value="&lt;span style=&quot;font-size: 16px;&quot;&gt;Año de creación&lt;/span&gt;" style="ellipse;whiteSpace=wrap;html=1;align=center;" parent="1" vertex="1">
          <mxGeometry x="40" y="385" width="120" height="65" as="geometry" />
        </mxCell>
        <mxCell id="ekM_NdL7K5Tozn75nBEl-302" value="" style="endArrow=none;html=1;rounded=0;entryX=0;entryY=0.25;entryDx=0;entryDy=0;" parent="1" target="ekM_NdL7K5Tozn75nBEl-271" edge="1">
          <mxGeometry relative="1" as="geometry">
            <mxPoint x="160" y="230" as="sourcePoint" />
            <mxPoint x="315" y="224.29" as="targetPoint" />
          </mxGeometry>
        </mxCell>
        <mxCell id="JNzm3K18ym4uhyMhMxKO-1" value="&lt;font style=&quot;font-size: 16px;&quot;&gt;Nombre&lt;/font&gt;" style="ellipse;whiteSpace=wrap;html=1;" vertex="1" parent="1">
          <mxGeometry x="261.25" y="535" width="127.5" height="75" as="geometry" />
        </mxCell>
        <mxCell id="JNzm3K18ym4uhyMhMxKO-2" value="" style="endArrow=none;html=1;rounded=0;" edge="1" parent="1">
          <mxGeometry width="50" height="50" relative="1" as="geometry">
            <mxPoint x="160" y="290" as="sourcePoint" />
            <mxPoint x="180" y="270" as="targetPoint" />
          </mxGeometry>
        </mxCell>
        <mxCell id="JNzm3K18ym4uhyMhMxKO-3" value="" style="endArrow=none;html=1;rounded=0;" edge="1" parent="1">
          <mxGeometry width="50" height="50" relative="1" as="geometry">
            <mxPoint x="150" y="330" as="sourcePoint" />
            <mxPoint x="190" y="290" as="targetPoint" />
          </mxGeometry>
        </mxCell>
        <mxCell id="JNzm3K18ym4uhyMhMxKO-4" value="" style="endArrow=none;html=1;rounded=0;exitX=1;exitY=0;exitDx=0;exitDy=0;" edge="1" parent="1" source="ekM_NdL7K5Tozn75nBEl-301">
          <mxGeometry width="50" height="50" relative="1" as="geometry">
            <mxPoint x="150" y="340" as="sourcePoint" />
            <mxPoint x="200" y="290" as="targetPoint" />
          </mxGeometry>
        </mxCell>
        <mxCell id="JNzm3K18ym4uhyMhMxKO-5" value="&lt;font style=&quot;font-size: 16px;&quot;&gt;Fecha de fin&lt;/font&gt;" style="ellipse;whiteSpace=wrap;html=1;" vertex="1" parent="1">
          <mxGeometry x="515" y="450" width="130" height="65" as="geometry" />
        </mxCell>
        <mxCell id="JNzm3K18ym4uhyMhMxKO-6" value="&lt;font size=&quot;1&quot;&gt;&lt;u style=&quot;font-size: 16px;&quot;&gt;IDTorneo&lt;/u&gt;&lt;/font&gt;" style="ellipse;whiteSpace=wrap;html=1;" vertex="1" parent="1">
          <mxGeometry x="220" y="450" width="120" height="70" as="geometry" />
        </mxCell>
        <mxCell id="JNzm3K18ym4uhyMhMxKO-8" value="&lt;font style=&quot;font-size: 16px;&quot;&gt;Fecha de inicio&lt;/font&gt;" style="ellipse;whiteSpace=wrap;html=1;" vertex="1" parent="1">
          <mxGeometry x="420" y="530" width="145" height="80" as="geometry" />
        </mxCell>
        <mxCell id="JNzm3K18ym4uhyMhMxKO-9" value="" style="endArrow=none;html=1;rounded=0;exitX=0.29;exitY=0;exitDx=0;exitDy=0;exitPerimeter=0;" edge="1" parent="1" source="JNzm3K18ym4uhyMhMxKO-8">
          <mxGeometry width="50" height="50" relative="1" as="geometry">
            <mxPoint x="400" y="540" as="sourcePoint" />
            <mxPoint x="450" y="490" as="targetPoint" />
          </mxGeometry>
        </mxCell>
        <mxCell id="JNzm3K18ym4uhyMhMxKO-10" value="" style="endArrow=none;html=1;rounded=0;entryX=0.32;entryY=0.975;entryDx=0;entryDy=0;entryPerimeter=0;" edge="1" parent="1" target="ekM_NdL7K5Tozn75nBEl-275">
          <mxGeometry width="50" height="50" relative="1" as="geometry">
            <mxPoint x="360" y="540" as="sourcePoint" />
            <mxPoint x="400" y="500" as="targetPoint" />
            <Array as="points" />
          </mxGeometry>
        </mxCell>
        <mxCell id="JNzm3K18ym4uhyMhMxKO-12" value="" style="endArrow=none;html=1;rounded=0;exitX=1;exitY=0.5;exitDx=0;exitDy=0;" edge="1" parent="1" source="ekM_NdL7K5Tozn75nBEl-275">
          <mxGeometry width="50" height="50" relative="1" as="geometry">
            <mxPoint x="465" y="530" as="sourcePoint" />
            <mxPoint x="515" y="480" as="targetPoint" />
          </mxGeometry>
        </mxCell>
        <mxCell id="JNzm3K18ym4uhyMhMxKO-13" value="" style="endArrow=none;html=1;rounded=0;exitX=1;exitY=0.5;exitDx=0;exitDy=0;" edge="1" parent="1" source="JNzm3K18ym4uhyMhMxKO-6">
          <mxGeometry width="50" height="50" relative="1" as="geometry">
            <mxPoint x="325" y="520" as="sourcePoint" />
            <mxPoint x="375" y="470" as="targetPoint" />
          </mxGeometry>
        </mxCell>
        <mxCell id="JNzm3K18ym4uhyMhMxKO-14" value="&lt;u&gt;&lt;font style=&quot;font-size: 16px;&quot;&gt;IDTrofeo&lt;/font&gt;&lt;/u&gt;" style="ellipse;whiteSpace=wrap;html=1;" vertex="1" parent="1">
          <mxGeometry x="630" y="135" width="130" height="75" as="geometry" />
        </mxCell>
        <mxCell id="JNzm3K18ym4uhyMhMxKO-15" value="&lt;font style=&quot;font-size: 16px;&quot;&gt;Nombre&lt;/font&gt;" style="ellipse;whiteSpace=wrap;html=1;" vertex="1" parent="1">
          <mxGeometry x="660" y="245" width="130" height="75" as="geometry" />
        </mxCell>
        <mxCell id="JNzm3K18ym4uhyMhMxKO-16" value="&lt;font style=&quot;font-size: 16px;&quot;&gt;País de origen&lt;/font&gt;" style="ellipse;whiteSpace=wrap;html=1;" vertex="1" parent="1">
          <mxGeometry x="560" y="330" width="140" height="70" as="geometry" />
        </mxCell>
        <mxCell id="JNzm3K18ym4uhyMhMxKO-17" value="" style="endArrow=none;html=1;rounded=0;exitX=0.5;exitY=0;exitDx=0;exitDy=0;" edge="1" parent="1" source="ekM_NdL7K5Tozn75nBEl-272">
          <mxGeometry width="50" height="50" relative="1" as="geometry">
            <mxPoint x="590" y="245" as="sourcePoint" />
            <mxPoint x="640" y="195" as="targetPoint" />
          </mxGeometry>
        </mxCell>
        <mxCell id="JNzm3K18ym4uhyMhMxKO-18" value="" style="endArrow=none;html=1;rounded=0;exitX=1;exitY=0.75;exitDx=0;exitDy=0;" edge="1" parent="1" source="ekM_NdL7K5Tozn75nBEl-272">
          <mxGeometry width="50" height="50" relative="1" as="geometry">
            <mxPoint x="610" y="330" as="sourcePoint" />
            <mxPoint x="660" y="280" as="targetPoint" />
            <Array as="points" />
          </mxGeometry>
        </mxCell>
        <mxCell id="JNzm3K18ym4uhyMhMxKO-19" value="" style="endArrow=none;html=1;rounded=0;" edge="1" parent="1" source="JNzm3K18ym4uhyMhMxKO-16">
          <mxGeometry width="50" height="50" relative="1" as="geometry">
            <mxPoint x="560" y="340" as="sourcePoint" />
            <mxPoint x="610" y="290" as="targetPoint" />
          </mxGeometry>
        </mxCell>
        <mxCell id="JNzm3K18ym4uhyMhMxKO-20" value="1:1" style="text;html=1;align=center;verticalAlign=middle;resizable=0;points=[];autosize=1;strokeColor=none;fillColor=none;" vertex="1" parent="1">
          <mxGeometry x="380" y="218" width="40" height="30" as="geometry" />
        </mxCell>
        <mxCell id="JNzm3K18ym4uhyMhMxKO-22" value="1" style="text;html=1;align=center;verticalAlign=middle;resizable=0;points=[];autosize=1;strokeColor=none;fillColor=none;" vertex="1" parent="1">
          <mxGeometry x="500" y="235" width="30" height="30" as="geometry" />
        </mxCell>
        <mxCell id="JNzm3K18ym4uhyMhMxKO-23" value="1" style="text;html=1;align=center;verticalAlign=middle;resizable=0;points=[];autosize=1;strokeColor=none;fillColor=none;" vertex="1" parent="1">
          <mxGeometry x="280" y="235" width="30" height="30" as="geometry" />
        </mxCell>
        <mxCell id="JNzm3K18ym4uhyMhMxKO-24" value="M" style="text;html=1;align=center;verticalAlign=middle;resizable=0;points=[];autosize=1;strokeColor=none;fillColor=none;" vertex="1" parent="1">
          <mxGeometry x="510" y="280" width="30" height="30" as="geometry" />
        </mxCell>
        <mxCell id="JNzm3K18ym4uhyMhMxKO-25" value="N:M" style="text;html=1;align=center;verticalAlign=middle;resizable=0;points=[];autosize=1;strokeColor=none;fillColor=none;" vertex="1" parent="1">
          <mxGeometry x="440" y="290" width="50" height="30" as="geometry" />
        </mxCell>
        <mxCell id="JNzm3K18ym4uhyMhMxKO-33" value="N" style="text;html=1;align=center;verticalAlign=middle;resizable=0;points=[];autosize=1;strokeColor=none;fillColor=none;" vertex="1" parent="1">
          <mxGeometry x="425" y="420" width="30" height="30" as="geometry" />
        </mxCell>
        <mxCell id="JNzm3K18ym4uhyMhMxKO-34" value="" style="endArrow=none;html=1;rounded=0;exitX=0.75;exitY=0;exitDx=0;exitDy=0;" edge="1" parent="1" source="ekM_NdL7K5Tozn75nBEl-275">
          <mxGeometry width="50" height="50" relative="1" as="geometry">
            <mxPoint x="400" y="430" as="sourcePoint" />
            <mxPoint x="460" y="370" as="targetPoint" />
          </mxGeometry>
        </mxCell>
        <mxCell id="JNzm3K18ym4uhyMhMxKO-35" value="N" style="text;html=1;align=center;verticalAlign=middle;resizable=0;points=[];autosize=1;strokeColor=none;fillColor=none;" vertex="1" parent="1">
          <mxGeometry x="358.75" y="420" width="30" height="30" as="geometry" />
        </mxCell>
        <mxCell id="JNzm3K18ym4uhyMhMxKO-36" value="M" style="text;html=1;align=center;verticalAlign=middle;resizable=0;points=[];autosize=1;strokeColor=none;fillColor=none;" vertex="1" parent="1">
          <mxGeometry x="261.25" y="282.5" width="30" height="30" as="geometry" />
        </mxCell>
        <mxCell id="JNzm3K18ym4uhyMhMxKO-37" value="M:N" style="text;html=1;align=center;verticalAlign=middle;resizable=0;points=[];autosize=1;strokeColor=none;fillColor=none;" vertex="1" parent="1">
          <mxGeometry x="300" y="300" width="50" height="30" as="geometry" />
        </mxCell>
        <mxCell id="JNzm3K18ym4uhyMhMxKO-38" value="N" style="text;html=1;align=center;verticalAlign=middle;resizable=0;points=[];autosize=1;strokeColor=none;fillColor=none;" vertex="1" parent="1">
          <mxGeometry x="180" y="220" width="30" height="30" as="geometry" />
        </mxCell>
        <mxCell id="JNzm3K18ym4uhyMhMxKO-39" value="M" style="text;html=1;align=center;verticalAlign=middle;resizable=0;points=[];autosize=1;strokeColor=none;fillColor=none;" vertex="1" parent="1">
          <mxGeometry x="320" y="105" width="30" height="30" as="geometry" />
        </mxCell>
        <mxCell id="JNzm3K18ym4uhyMhMxKO-40" value="M:N" style="text;html=1;align=center;verticalAlign=middle;resizable=0;points=[];autosize=1;strokeColor=none;fillColor=none;" vertex="1" parent="1">
          <mxGeometry x="210" y="115" width="50" height="30" as="geometry" />
        </mxCell>
      </root>
    </mxGraphModel>
  </diagram>
</mxfile>
